<svg width="512" height="512" viewBox="0 0 512 512" fill="none" xmlns="http://www.w3.org/2000/svg">
  <rect width="512" height="512" rx="120" fill="#031B3D"/>
  <path d="M87 402C232 390 344 326 402 209C428 156 432 102 427 70H322C321 123 304 179 268 231C225 293 161 335 87 346V402Z" fill="url(#paint0_linear)"/>
  <path d="M104 119C104 89 128 65 158 65C188 65 212 89 212 119C212 149 188 173 158 173C128 173 104 149 104 119Z" fill="url(#paint1_linear)"/>
  <path d="M313 348H426V402H247C274 386 296 368 313 348Z" fill="url(#paint2_linear)"/>
  <defs>
    <linearGradient id="paint0_linear" x1="87" y1="402" x2="433" y2="71" gradientUnits="userSpaceOnUse">
      <stop stop-color="#2DE0D2"/>
      <stop offset="0.48" stop-color="#3E93F5"/>
      <stop offset="1" stop-color="#7C2DFF"/>
    </linearGradient>
    <linearGradient id="paint1_linear" x1="105" y1="173" x2="210" y2="66" gradientUnits="userSpaceOnUse">
      <stop stop-color="#7C2DFF"/>
      <stop offset="1" stop-color="#2DE0D2"/>
    </linearGradient>
    <linearGradient id="paint2_linear" x1="247" y1="402" x2="426" y2="348" gradientUnits="userSpaceOnUse">
      <stop stop-color="#5B5FF6"/>
      <stop offset="1" stop-color="#2DE0D2"/>
    </linearGradient>
  </defs>
</svg>
